# xmcd
#
# Track frame offsets: 
#        150
#        27735
#        42837
#        59041
#        88597
#        111329
#        135591
#        147888
#        177905
#        198876
#        226214
#        236017
#        245100
#        278659
#        303056
#        315596
#        329187
#
# Disc length: 4635 seconds
#
# Revision: 0
# Processed by: cddbd v1.5.2PL0 Copyright (c) Steve Scherf et al.
# Submitted via: ExactAudioCopyFreeDBPlugin 1.0
#
DISCID=f9121911
DTITLE=中國音樂發燒天碟 - 中國音樂發燒天碟 之 二胡傳真 [Disc 1]
DYEAR=2005
DGENRE=中樂
TTITLE0=阿炳 - 二泉映月
TTITLE1=劉天華 - 空山鳥雨
TTITLE2=阿炳 - 聽松
TTITLE3=漢宮秋月
TTITLE4=孫文明 - 流波曲
TTITLE5=朱昌耀 - 長相思
TTITLE6=劉天華 - 良宵
TTITLE7=劉天華 - 病中吟
TTITLE8=揚州小調
TTITLE9=朱昌耀 - 江南春色
TTITLE10=蘇南小調
TTITLE11=賽馬
TTITLE12=江河水
TTITLE13=陽光之疊
TTITLE14=悲歌
TTITLE15=採花
TTITLE16=月亮走我也走
EXTD=
EXTT0=
EXTT1=
EXTT2=
EXTT3=
EXTT4=
EXTT5=
EXTT6=
EXTT7=
EXTT8=
EXTT9=
EXTT10=
EXTT11=
EXTT12=
EXTT13=
EXTT14=
EXTT15=
EXTT16=
PLAYORDER=
